<svg width="1128" height="526" viewBox="0 0 1128 526" fill="none" xmlns="http://www.w3.org/2000/svg">
<path d="M636.969 0.560568C635.004 1.72417 535.011 4.18065 513.834 3.6635C492.219 3.01706 453.576 3.92208 448.117 5.08568C445.061 5.86141 440.258 6.37856 437.201 6.37856C434.363 6.37856 430.215 6.89572 428.032 7.54216C422.355 9.35221 395.719 11.8087 377.817 12.3258C368.865 12.4551 358.604 13.2309 354.892 13.8773C350.963 14.5238 341.575 14.9116 333.715 14.7823C325.855 14.653 317.559 15.0409 315.157 15.5581C309.481 16.7217 280.007 18.4024 260.576 18.661C252.279 18.7903 218.221 19.3074 185.035 19.8246C142.898 20.6003 123.249 20.471 120.192 19.4367C116.917 18.4024 112.988 18.5317 105.128 19.8246C99.4514 20.8589 88.7535 22.6689 81.5487 23.8325C74.344 24.9961 64.0827 27.1941 58.6245 28.7455C53.3847 30.297 47.9266 31.5899 46.835 31.5899C43.1234 31.5899 42.9051 35.5978 46.18 37.6664C48.7999 39.2179 49.0182 39.9936 46.3983 42.7087C44.87 44.3895 44.215 47.1045 44.87 48.656C45.525 50.2075 44.4334 53.3104 42.6868 55.379C40.7218 57.7062 40.2852 59.6455 41.3768 60.1627C42.4684 60.5506 43.3417 62.7485 43.3417 64.9464C43.3417 67.2736 44.215 71.023 45.3067 73.2209C47.0533 76.5824 46.6166 78.0045 43.1234 80.5903C40.2852 82.7882 39.8485 83.9518 41.5951 84.2104C43.3417 84.5983 42.6868 86.5376 39.4119 90.5456C36.792 93.7778 34.1721 98.1736 33.7354 100.372C33.5171 102.569 31.5522 105.672 29.3689 107.353C27.404 109.034 25.8757 112.913 25.8757 116.015C25.8757 118.989 24.5657 122.868 22.8191 124.419C21.0725 125.971 19.1076 129.849 18.2343 133.082C16.2694 142.778 15.8327 143.683 12.5578 145.235C8.40964 147.174 7.53633 155.449 9.06461 178.333C9.28294 180.789 8.62796 184.151 7.75466 185.573C6.44471 187.771 7.09968 188.546 10.8112 189.064C13.2128 189.451 14.9594 190.356 14.3044 190.874C12.5578 192.425 17.1427 200.053 22.1642 204.19C26.5307 207.94 26.9673 211.689 23.2558 216.731C21.9458 218.671 20.4175 221.774 20.1992 223.584C19.7626 225.264 14.9594 229.272 9.50127 232.375C-1.19669 238.71 -1.41502 239.098 2.29652 247.373C4.47978 252.157 4.26145 253.837 1.85987 256.552C-0.541714 259.267 -0.541714 260.172 1.42322 260.948C2.9515 261.465 4.26145 263.017 4.26145 264.439C4.04312 265.732 4.04312 268.835 4.04312 271.291C3.8248 273.618 4.91643 276.334 6.00806 276.98C7.31801 277.756 8.40964 279.566 8.40964 281.117C8.40964 282.539 10.8112 285.901 14.0861 288.616C19.1076 293.012 19.3259 293.658 16.2694 295.468C11.4662 298.313 11.9028 299.735 18.016 300.64C21.9458 301.157 23.4741 302.45 24.5657 306.458C25.2207 309.173 26.9673 311.5 28.2773 311.5C29.5872 311.5 29.8056 312.276 28.4956 313.569C27.404 314.862 27.1856 317.706 28.2773 320.421C29.5872 323.782 29.1506 325.593 26.749 327.144C25.0024 328.308 22.8191 331.411 22.1642 333.996C21.0725 338.004 21.5092 338.651 25.439 338.651C30.4605 338.651 39.8485 349.123 42.2501 357.656C43.5601 362.181 42.9051 363.474 38.5386 366.06C31.9888 369.809 27.6223 374.852 28.9322 376.92C29.5872 377.825 28.4956 379.247 26.749 380.023C25.0024 380.928 23.6924 382.221 23.6924 382.867C23.6924 383.514 21.5092 385.712 19.1076 387.78C16.4877 389.849 14.5228 393.081 14.7411 395.15C14.9594 397.089 15.1777 400.451 15.1777 402.39C15.1777 404.459 16.4877 407.432 18.2343 408.984C23.4741 413.509 24.5657 421.137 20.6359 424.628C15.8327 429.024 16.2694 430.187 23.4741 432.773C28.4956 434.583 29.3689 435.488 27.8406 437.298C26.3123 438.72 26.749 440.66 28.9322 443.245C30.6789 445.185 31.7705 447.253 31.1155 447.641C30.4605 448.029 31.5522 450.485 33.2988 453.071C35.2637 455.657 36.137 458.372 35.7003 459.019C35.0454 459.536 33.9537 465.095 33.2988 471.172C32.4255 481.515 32.6438 482.678 38.3203 488.626C41.5951 492.246 45.7433 495.09 47.2716 495.09C49.0182 495.09 49.4549 496.124 48.5816 498.322C47.0533 501.813 51.8564 509.441 55.3497 509.053C56.4413 508.924 60.3711 509.57 64.0827 510.475C69.5408 511.898 72.8157 511.51 90.2818 507.89C116.917 502.33 133.729 501.296 270.182 497.676C312.537 496.642 323.89 496.642 325.2 497.934C326.073 498.84 327.602 499.098 328.475 498.71C329.13 498.193 332.623 498.581 336.116 499.615C340.265 500.908 349.434 501.555 364.717 501.555C377.162 501.684 391.571 502.33 397.029 502.977C402.487 503.752 413.84 504.787 422.137 505.433C430.651 505.95 440.913 506.985 445.061 507.76C452.702 509.183 554.005 510.217 612.08 509.441C650.287 509.053 710.108 511.381 721.898 513.837C729.976 515.518 736.307 515.647 766.218 514.354C795.692 513.191 804.425 513.32 820.144 514.871C853.767 518.362 983.234 521.077 1041.74 519.526C1059.65 519.009 1061.39 519.267 1065.11 521.982C1070.13 525.473 1080.83 527.024 1084.1 524.568C1087.16 522.37 1091.3 511.768 1091.3 506.468C1091.3 504.14 1093.05 500.391 1095.23 498.064C1108.12 484.101 1112.05 480.868 1118.81 478.929C1127.98 476.343 1130.39 471.689 1125.58 466.647C1123.62 464.707 1122.53 462.768 1123.4 462.251C1124.05 461.863 1122.96 460.311 1120.78 458.889C1117.29 456.691 1116.85 454.364 1117.29 445.185C1117.5 439.108 1118.6 432.902 1119.47 431.351C1120.56 429.67 1121 426.696 1120.56 424.628C1120.12 422.43 1119.91 417.775 1120.12 414.285C1121.22 391.401 1121 389.978 1111.83 380.54C1100.91 369.034 1098.29 365.026 1098.07 359.078C1097.85 356.363 1096.54 353.777 1094.8 353.26C1091.3 352.097 1088.47 333.479 1091.96 333.479C1093.27 333.479 1093.27 332.833 1091.74 331.798C1089.56 330.247 1091.74 316.93 1094.58 314.086C1095.45 313.31 1096.54 307.88 1097.2 302.062C1097.64 296.244 1098.73 287.064 1099.38 281.764C1101.35 264.568 1101.57 258.492 1100.26 258.492C1099.6 258.492 1098.95 255.13 1098.73 250.993C1098.51 244.399 1096.98 238.452 1094.8 234.573C1092.4 230.436 1097.64 212.982 1103.53 206C1108.55 199.795 1109.86 196.433 1110.3 188.029C1110.74 182.341 1112.26 169.282 1113.79 158.939C1116.63 139.934 1115.54 126.359 1110.74 121.833C1108.77 119.894 1109.21 118.343 1112.7 114.205C1116.41 109.939 1116.63 108.258 1114.88 102.699C1113.79 99.0786 1112.48 92.097 1112.26 87.184C1111.83 82.1418 1110.95 73.738 1110.08 68.3079C1108.77 59.387 1109.21 58.3527 1113.36 56.0255C1115.98 54.7326 1119.25 52.1468 1120.78 50.3367C1124.49 45.9409 1123.18 33.3999 1118.81 31.4606C1116.85 30.6849 1115.32 29.392 1115.32 28.6162C1115.32 26.0305 1099.82 24.2204 1064.01 22.6689C1060.52 22.5397 1053.53 21.7639 1048.73 20.9882C1036.29 18.7903 1017.07 17.6267 992.622 17.6267C977.12 17.6267 971.881 17.2388 972.536 16.0752C973.627 14.3945 960.528 12.3258 933.455 10.1279C916.644 8.83505 900.488 9.48149 895.685 11.6794C894.157 12.4551 892.41 12.1966 890.882 11.2915C889.354 10.1279 880.184 9.48149 862.718 9.22292C848.527 8.96434 831.061 8.18861 823.856 7.41287C809.665 5.86141 799.622 5.86141 782.374 7.1543C773.641 7.80074 770.584 7.54216 768.401 5.86141C766.655 4.56852 761.851 3.79279 756.393 3.6635C751.59 3.53421 745.04 3.14634 741.984 2.62919C738.927 2.11203 732.159 2.37061 726.701 3.14634C719.06 4.30994 715.13 4.30994 709.235 3.01706C698.755 0.819146 689.586 0.819146 685.219 3.14634C681.944 4.8271 681.071 4.8271 676.923 2.4999C671.683 -0.344453 666.443 -0.861608 665.133 1.46559C664.478 2.4999 662.732 2.62919 659.893 1.85346C655.527 0.689857 638.279 -0.344453 636.969 0.560568Z" fill="white"/>
</svg>
