<?xml version="1.0" standalone="no"?>
<!DOCTYPE svg PUBLIC "-//W3C//DTD SVG 20010904//EN"
 "http://www.w3.org/TR/2001/REC-SVG-20010904/DTD/svg10.dtd">
<svg version="1.0" xmlns="http://www.w3.org/2000/svg"
 width="1280.000000pt" height="640.000000pt" viewBox="0 0 1280.000000 640.000000"
 preserveAspectRatio="xMidYMid meet">
<metadata>
Created by potrace 1.15, written by Peter Selinger 2001-2017
</metadata>
<g transform="translate(0.000000,640.000000) scale(0.100000,-0.100000)"
fill="#F2E0C8" stroke="none">
<path d="M887 5973 c22 -356 -308 -670 -709 -674 l-88 -1 0 -57 0 -58 53 -36
c99 -69 148 -154 155 -268 8 -129 -45 -234 -155 -308 l-53 -35 0 -88 0 -87 43
-30 c61 -42 102 -88 133 -151 24 -47 28 -67 29 -140 0 -74 -4 -92 -28 -140
-34 -65 -86 -122 -144 -157 l-43 -25 0 -86 1 -87 51 -35 c63 -42 122 -118 144
-184 24 -71 15 -185 -19 -251 -25 -50 -98 -126 -150 -158 -26 -17 -27 -20 -27
-106 l0 -88 49 -32 c58 -37 102 -90 134 -158 31 -68 31 -188 0 -256 -32 -69
-75 -120 -138 -162 l-55 -36 0 -84 0 -84 44 -30 c220 -151 222 -442 5 -584
l-49 -32 0 -61 0 -61 103 -6 c344 -19 620 -245 673 -551 11 -61 12 -103 6
-150 l-8 -64 340 -6 c188 -3 1205 -10 2261 -16 2056 -11 4161 -24 6460 -40
787 -6 1530 -10 1651 -10 l222 0 0 107 c-1 91 3 120 26 186 91 269 339 447
646 465 l115 7 3 60 2 60 -49 32 c-58 38 -112 102 -143 169 -31 68 -31 179 0
248 31 68 81 127 147 170 l55 37 0 79 0 79 -55 36 c-59 40 -99 85 -136 155
-34 64 -34 203 -1 271 32 64 83 122 142 160 l50 32 0 84 0 83 -37 24 c-57 36
-119 105 -149 166 -39 78 -39 179 0 267 30 66 105 146 164 177 32 16 32 17 32
96 l0 79 -57 43 c-154 117 -202 276 -131 431 29 62 109 147 159 167 l29 12 0
89 c0 81 -2 89 -22 100 -87 46 -169 153 -188 246 -28 133 37 272 165 357 l55
37 0 55 0 54 -69 0 c-129 0 -287 46 -405 117 -75 46 -190 161 -234 235 -62
104 -76 160 -77 294 l0 122 -350 6 c-192 3 -1203 10 -2245 16 -1980 11 -4001
23 -6465 40 -803 6 -1553 10 -1667 10 l-207 0 6 -87z"/>
</g>
</svg>
