<svg preserveAspectRatio="none" viewBox="0 0 100 568" fill="none" xmlns="http://www.w3.org/2000/svg">
<g clip-path="url(#clip0_616_7867)">
<path d="M18.3 8.70001C16.1 44.3 49.1 75.7 89.2 76.1L98 76.2V81.9V87.7L92.7 91.3C82.8 98.2 77.9 106.7 77.2 118.1C76.4 131 81.7 141.5 92.7 148.9L98 152.4V161.2V169.9L93.7 172.9C87.6 177.1 83.5 181.7 80.4 188C78 192.7 77.6 194.7 77.5 202C77.5 209.4 77.9 211.2 80.3 216C83.7 222.5 88.9 228.2 94.7 231.7L99 234.2V242.8L98.9 251.5L93.8 255C87.5 259.2 81.6 266.8 79.4 273.4C77 280.5 77.9 291.9 81.3 298.5C83.8 303.5 91.1 311.1 96.3 314.3C98.9 316 99 316.3 99 324.9V333.7L94.1 336.9C88.3 340.6 83.9 345.9 80.7 352.7C77.6 359.5 77.6 371.5 80.7 378.3C83.9 385.2 88.2 390.3 94.5 394.5L100 398.1V406.5V414.9L95.6 417.9C73.6 433 73.4 462.1 95.1 476.3L100 479.5V485.6V491.7L89.7 492.3C55.3 494.2 27.7 516.8 22.4 547.4C21.3 553.5 21.2 557.7 21.8 562.4L22.6 568.8L-11.4 569.4C-30.2 569.7 -131.9 570.4 -237.5 571C-443.1 572.1 -653.6 573.4 -883.5 575C-962.2 575.6 -1036.5 576 -1048.6 576H-1070.8V565.3C-1070.7 556.2 -1071.1 553.3 -1073.4 546.7C-1082.5 519.8 -1107.3 502 -1138 500.2L-1149.5 499.5L-1149.8 493.5L-1150 487.5L-1145.1 484.3C-1139.3 480.5 -1133.9 474.1 -1130.8 467.4C-1127.7 460.6 -1127.7 449.5 -1130.8 442.6C-1133.9 435.8 -1138.9 429.9 -1145.5 425.6L-1151 421.9V414V406.1L-1145.5 402.5C-1139.6 398.5 -1135.6 394 -1131.9 387C-1128.5 380.6 -1128.5 366.7 -1131.8 359.9C-1135 353.5 -1140.1 347.7 -1146 343.9L-1151 340.7V332.3V324L-1147.3 321.6C-1141.6 318 -1135.4 311.1 -1132.4 305C-1128.5 297.2 -1128.5 287.1 -1132.4 278.3C-1135.4 271.7 -1142.9 263.7 -1148.8 260.6C-1152 259 -1152 258.9 -1152 251V243.1L-1146.3 238.8C-1130.9 227.1 -1126.1 211.2 -1133.2 195.7C-1136.1 189.5 -1144.1 181 -1149.1 179L-1152 177.8V168.9C-1152 160.8 -1151.8 160 -1149.8 158.9C-1141.1 154.3 -1132.9 143.6 -1131 134.3C-1128.2 121 -1134.7 107.1 -1147.5 98.6L-1153 94.9V89.4V84H-1146.1C-1133.2 84 -1117.4 79.4 -1105.6 72.3C-1098.1 67.7 -1086.6 56.2 -1082.2 48.8C-1076 38.4 -1074.6 32.8 -1074.5 19.4V7.20001L-1039.5 6.59998C-1020.3 6.29998 -919.2 5.6 -815 5C-617 3.9 -414.9 2.7 -168.5 1C-88.2 0.4 -13.2 0 -1.8 0H18.9L18.3 8.70001Z" fill="#F2E0C8"/>
</g>
<defs>
<clipPath id="clip0_616_7867">
<rect width="100" height="568" fill="white" transform="matrix(-1 0 0 1 100 0)"/>
</clipPath>
</defs>
</svg>
