<svg preserveAspectRatio="none" viewBox="0 0 100 538" fill="none" xmlns="http://www.w3.org/2000/svg">
<path d="M81.7 8.70001C83.9 44.3 50.9 75.7 10.8 76.1L2 76.2V81.9V87.7L7.3 91.3C17.2 98.2 22.1 106.7 22.8 118.1C23.6 131 18.3 141.5 7.3 148.9L2 152.4V161.2V169.9L6.3 172.9C12.4 177.1 16.5 181.7 19.6 188C22 192.7 22.4 194.7 22.5 202C22.5 209.4 22.1 211.2 19.7 216C16.3 222.5 11.1 228.2 5.3 231.7L1 234.2V242.8L1.1 251.5L6.2 255C12.5 259.2 18.4 266.8 20.6 273.4C23 280.5 22.1 291.9 18.7 298.5C16.2 303.5 8.9 311.1 3.7 314.3C1.1 316 1 316.3 1 324.9V333.7L5.9 336.9C11.7 340.6 16.1 345.9 19.3 352.7C22.4 359.5 22.4 371.5 19.3 378.3C16.1 385.2 11.8 390.3 5.5 394.5L0 398.1V406.5V414.9L4.4 417.9C26.4 433 26.6 462.1 4.9 476.3L0 479.5V485.6V491.7L10.3 492.3C44.7 494.2 72.3 516.8 77.6 547.4C78.7 553.5 78.8 557.7 78.2 562.4L77.4 568.8L111.4 569.4C130.2 569.7 231.9 570.4 337.5 571C543.1 572.1 753.6 573.4 983.5 575C1062.2 575.6 1136.5 576 1148.6 576H1170.8V565.3C1170.7 556.2 1171.1 553.3 1173.4 546.7C1182.5 519.8 1207.3 502 1238 500.2L1249.5 499.5L1249.8 493.5L1250 487.5L1245.1 484.3C1239.3 480.5 1233.9 474.1 1230.8 467.4C1227.7 460.6 1227.7 449.5 1230.8 442.6C1233.9 435.8 1238.9 429.9 1245.5 425.6L1251 421.9V414V406.1L1245.5 402.5C1239.6 398.5 1235.6 394 1231.9 387C1228.5 380.6 1228.5 366.7 1231.8 359.9C1235 353.5 1240.1 347.7 1246 343.9L1251 340.7V332.3V324L1247.3 321.6C1241.6 318 1235.4 311.1 1232.4 305C1228.5 297.2 1228.5 287.1 1232.4 278.3C1235.4 271.7 1242.9 263.7 1248.8 260.6C1252 259 1252 258.9 1252 251V243.1L1246.3 238.8C1230.9 227.1 1226.1 211.2 1233.2 195.7C1236.1 189.5 1244.1 181 1249.1 179L1252 177.8V168.9C1252 160.8 1251.8 160 1249.8 158.9C1241.1 154.3 1232.9 143.6 1231 134.3C1228.2 121 1234.7 107.1 1247.5 98.6L1253 94.9V89.4V84H1246.1C1233.2 84 1217.4 79.4 1205.6 72.3C1198.1 67.7 1186.6 56.2 1182.2 48.8C1176 38.4 1174.6 32.8 1174.5 19.4V7.20001L1139.5 6.59998C1120.3 6.29998 1019.2 5.6 915 5C717 3.9 514.9 2.7 268.5 1C188.2 0.4 113.2 0 101.8 0H81.1L81.7 8.70001Z" fill="#F2E0C8"/>
</svg>
