<svg width="316" height="314" viewBox="0 0 316 314" fill="none" xmlns="http://www.w3.org/2000/svg">
<path d="M227.838 142.75C177.201 88.7279 172.355 77.0474 153.374 77.0474C134.394 77.0474 128.553 123.769 141.694 135.45C154.834 147.131 153.374 176.332 130.013 190.932C106.652 205.533 80.3712 157.351 67.2303 183.632C54.6194 208.854 74.5307 297.517 159.214 296.057C243.898 294.597 278.474 196.773 227.838 142.75Z" fill="#F15152"/>
<path d="M134.824 40.2562C134.824 45.3751 131.202 49.7335 126.277 51.1296C114.122 54.5754 102.775 59.9434 92.5852 66.8841C88.032 69.9855 81.8522 69.7079 77.9567 65.8124L59.6724 47.5281C55.3343 43.19 55.4747 36.0783 60.2862 32.2721C78.2835 18.0351 99.4567 7.63676 122.57 2.31336C128.974 0.838333 134.824 5.90105 134.824 12.473V40.2562Z" fill="white"/>
<path d="M235.419 63.8815C231.609 67.6915 225.596 68.0489 221.062 65.1374C213.44 60.2425 205.21 56.211 196.511 53.181C191.919 51.5815 188.639 47.3722 188.639 42.5094V14.3053C188.639 7.5315 194.834 2.42406 201.35 4.2743C220.288 9.65152 237.776 18.4754 253.093 30.0249C258.064 33.7738 258.287 41.0132 253.884 45.4163L235.419 63.8815Z" fill="white"/>
<path d="M282.6 145.382C277.29 145.382 272.827 141.493 271.602 136.326C269.536 127.612 266.493 119.276 262.593 111.44C260.405 107.044 261.039 101.683 264.511 98.2105L281.859 80.8624C286.725 75.9965 294.862 76.883 298.056 82.9782C306.245 98.6048 311.892 115.773 314.45 133.933C315.318 140.101 310.356 145.382 304.127 145.382H282.6Z" fill="white"/>
<path d="M285.505 235.073C279.561 235.073 274.742 230.254 274.742 224.31V200.99C274.742 195.046 279.561 190.227 285.505 190.227H305.237C311.181 190.227 316 195.046 316 200.99V224.31C316 230.254 311.181 235.073 305.237 235.073H285.505Z" fill="white"/>
<path d="M30.783 190.227C36.7272 190.227 41.5459 195.046 41.5459 200.99V224.31C41.5459 230.254 36.7272 235.073 30.783 235.073H11.051C5.1068 235.073 0.288086 230.254 0.288086 224.31V200.99C0.288086 195.046 5.1068 190.227 11.051 190.227H30.783Z" fill="white"/>
<path d="M50.2018 101.479C53.5882 104.865 54.2817 110.061 52.2704 114.407C49.0485 121.369 46.4932 128.703 44.6863 136.326C43.4616 141.493 38.9987 145.382 33.6887 145.382H12.1612C5.93245 145.382 0.969966 140.101 1.83854 133.933C4.21114 117.085 9.2435 101.091 16.4973 86.3889C19.5857 80.1295 27.855 79.1318 32.7906 84.0673L50.2018 101.479Z" fill="white"/>
<path d="M11.051 314.001C5.10683 314.001 0.288109 309.182 0.288105 303.238L0.288095 290.681C0.28809 284.737 5.10681 279.918 11.051 279.918H305.237C311.181 279.918 316 284.737 316 290.681L316 303.238C316 309.182 311.181 314.001 305.237 314.001H11.051Z" fill="white"/>
</svg>
